<svg width="198" height="72" viewBox="0 0 198 72" fill="none" xmlns="http://www.w3.org/2000/svg">
<rect x="0.5" y="0.5" width="197" height="71" rx="9.5" stroke="#A1AEBF"/>
<path d="M40.03 40.1027V48.1194C40.03 48.4268 39.9072 48.7215 39.6885 48.9387C39.47 49.156 39.1735 49.2781 38.8642 49.2781C38.5551 49.2781 38.2586 49.156 38.0399 48.9387C37.8213 48.7215 37.6984 48.4268 37.6984 48.1194V40.1137C38.0231 40.3494 38.4122 40.4809 38.814 40.4907C39.252 40.5032 39.6812 40.3662 40.03 40.1027ZM49.9586 37.7852C49.6628 37.7852 49.379 37.9021 49.1698 38.11C48.9606 38.3179 48.8431 38.6 48.8431 38.894V40.2912C48.8431 40.5985 48.9659 40.8932 49.1845 41.1105C49.4031 41.3278 49.6996 41.4499 50.0088 41.4499C50.3181 41.4499 50.6146 41.3278 50.8331 41.1105C51.0518 40.8932 51.1746 40.5985 51.1746 40.2912V38.9495C51.1833 38.7905 51.1574 38.6315 51.0987 38.4833C51.0401 38.3352 50.95 38.2013 50.8346 38.0908C50.7192 37.9804 50.5812 37.8959 50.4302 37.8431C50.279 37.7904 50.1182 37.7707 49.9586 37.7852ZM35.1661 43.1408C34.7647 43.1288 34.3761 42.9976 34.0505 42.7638V50.8027C34.0505 51.1115 34.1739 51.4077 34.3936 51.626C34.6133 51.8443 34.9112 51.967 35.2219 51.967C35.5325 51.967 35.8305 51.8443 36.0501 51.626C36.2698 51.4077 36.3932 51.1115 36.3932 50.8027V42.8193C36.0289 43.0533 35.5991 43.166 35.1661 43.1408ZM46.3218 35.3791C46.1707 35.3716 46.0196 35.3947 45.8777 35.4471C45.7359 35.4994 45.6063 35.5799 45.4967 35.6836C45.3871 35.7874 45.3 35.9121 45.2404 36.0504C45.1809 36.1887 45.1503 36.3376 45.1505 36.4879V42.664C45.1505 42.9728 45.2739 43.269 45.4935 43.4873C45.7133 43.7056 46.0112 43.8283 46.3218 43.8283C46.6325 43.8283 46.9305 43.7056 47.1502 43.4873C47.3698 43.269 47.4932 42.9728 47.4932 42.664V36.5655C47.5021 36.4055 47.476 36.2455 47.4167 36.0965C47.3573 35.9475 47.2663 35.813 47.1496 35.7023C47.0329 35.5917 46.8936 35.5074 46.7411 35.4555C46.5886 35.4035 46.4265 35.385 46.2661 35.4013L46.3218 35.3791ZM42.6181 37.752C42.1979 37.7491 41.7889 37.6175 41.4468 37.375V45.4361C41.4468 45.7449 41.5702 46.041 41.7898 46.2594C42.0096 46.4777 42.3074 46.6003 42.6181 46.6003C42.9288 46.6003 43.2267 46.4777 43.4464 46.2594C43.6661 46.041 43.7895 45.7449 43.7895 45.4361V37.3861C43.4356 37.6481 43.0036 37.7847 42.5624 37.7741L42.6181 37.752ZM32.6337 43.9281V21.408C32.6308 21.1335 32.519 20.8713 32.3227 20.6782C32.1263 20.4851 31.8613 20.3768 31.5851 20.3768H31.3397C31.0635 20.3768 30.7984 20.4851 30.6021 20.6782C30.4057 20.8713 30.2939 21.1335 30.291 21.408V43.9281C30.291 44.2045 30.4015 44.4696 30.5982 44.6651C30.7948 44.8606 31.0615 44.9704 31.3397 44.9704H31.5851C31.8632 44.9704 32.1299 44.8606 32.3266 44.6651C32.5233 44.4696 32.6337 44.2045 32.6337 43.9281ZM35.2888 42.287H35.0434C34.7653 42.287 34.4985 42.1772 34.3019 41.9818C34.1052 41.7863 33.9947 41.5212 33.9947 41.2447V24.0914C33.9977 23.8169 34.1094 23.5546 34.3058 23.3615C34.5021 23.1684 34.7672 23.0602 35.0434 23.0602H35.2888C35.565 23.0602 35.83 23.1684 36.0264 23.3615C36.2227 23.5546 36.3345 23.8169 36.3374 24.0914V41.2669C36.3374 41.5433 36.227 41.8085 36.0303 42.0039C35.8336 42.1994 35.5669 42.3092 35.2888 42.3092V42.287ZM38.9814 39.648H38.7248C38.4497 39.648 38.1857 39.5394 37.9912 39.346C37.7966 39.1526 37.6873 38.8904 37.6873 38.6168V26.7525C37.6858 26.6162 37.7116 26.4809 37.763 26.3545C37.8145 26.2281 37.8907 26.1131 37.9872 26.0162C38.0837 25.9192 38.1986 25.8423 38.3252 25.7898C38.4518 25.7373 38.5876 25.7102 38.7248 25.7102H38.9814C39.2576 25.7132 39.5214 25.8243 39.7156 26.0194C39.91 26.2146 40.0188 26.478 40.0188 26.7525V38.6168C40.0188 38.8904 39.9095 39.1526 39.715 39.346C39.5204 39.5394 39.2566 39.648 38.9814 39.648ZM42.6739 36.9314H42.4396C42.1634 36.9314 41.8984 36.8232 41.702 36.6301C41.5057 36.437 41.3939 36.1748 41.391 35.9002V29.5135C41.3819 29.3711 41.4022 29.2284 41.4508 29.0941C41.4993 28.9599 41.5752 28.837 41.6735 28.7331C41.7717 28.6291 41.8904 28.5464 42.0223 28.4898C42.1541 28.4334 42.2961 28.4043 42.4396 28.4047H42.6851C42.9632 28.4047 43.2299 28.5144 43.4266 28.7099C43.6233 28.9054 43.7337 29.1705 43.7337 29.4469V35.8781C43.7352 36.0159 43.7092 36.1526 43.6571 36.2803C43.6051 36.4081 43.5281 36.5243 43.4305 36.6223C43.333 36.7202 43.217 36.7979 43.0889 36.8511C42.961 36.9042 42.8237 36.9314 42.6851 36.9314H42.6739ZM46.3776 34.5475H46.1322C45.8541 34.5475 45.5874 34.4377 45.3907 34.2422C45.194 34.0468 45.0836 33.7816 45.0836 33.5052V31.8531C45.0865 31.5785 45.1982 31.3163 45.3946 31.1232C45.5909 30.9301 45.856 30.8219 46.1322 30.8219H46.3776C46.6538 30.8219 46.9189 30.9301 47.1152 31.1232C47.3116 31.3163 47.4234 31.5785 47.4263 31.8531V33.5052C47.4263 33.7797 47.3174 34.0432 47.1231 34.2384C46.9288 34.4335 46.665 34.5446 46.3888 34.5475H46.3776Z" fill="white"/>
<path d="M81.9965 38.592C81.9965 39.904 81.7005 41.064 81.1085 42.072C80.5325 43.064 79.7485 43.84 78.7565 44.4C77.7805 44.96 76.6845 45.24 75.4685 45.24C74.2525 45.24 73.1485 44.96 72.1565 44.4C71.1805 43.84 70.3965 43.064 69.8045 42.072C69.2285 41.064 68.9405 39.904 68.9405 38.592C68.9405 37.28 69.2285 36.128 69.8045 35.136C70.3965 34.128 71.1805 33.344 72.1565 32.784C73.1485 32.208 74.2525 31.92 75.4685 31.92C76.6845 31.92 77.7805 32.208 78.7565 32.784C79.7485 33.344 80.5325 34.128 81.1085 35.136C81.7005 36.128 81.9965 37.28 81.9965 38.592ZM79.1165 38.592C79.1165 37.776 78.9485 37.072 78.6125 36.48C78.2925 35.872 77.8525 35.4 77.2925 35.064C76.7485 34.728 76.1405 34.56 75.4685 34.56C74.7965 34.56 74.1805 34.728 73.6205 35.064C73.0765 35.4 72.6365 35.872 72.3005 36.48C71.9805 37.072 71.8205 37.776 71.8205 38.592C71.8205 39.392 71.9805 40.096 72.3005 40.704C72.6365 41.296 73.0765 41.76 73.6205 42.096C74.1805 42.432 74.7965 42.6 75.4685 42.6C76.1405 42.6 76.7485 42.432 77.2925 42.096C77.8525 41.76 78.2925 41.296 78.6125 40.704C78.9485 40.096 79.1165 39.392 79.1165 38.592ZM91.597 27.24C91.949 27.24 92.293 27.288 92.629 27.384C92.965 27.48 93.245 27.64 93.469 27.864C93.693 28.072 93.805 28.352 93.805 28.704C93.805 29.104 93.685 29.424 93.445 29.664C93.221 29.888 92.957 30 92.653 30C92.509 30 92.293 29.968 92.005 29.904C91.717 29.824 91.437 29.784 91.165 29.784C90.765 29.784 90.453 29.872 90.229 30.048C90.021 30.224 89.877 30.432 89.797 30.672C89.717 30.896 89.677 31.096 89.677 31.272V43.536C89.677 43.952 89.541 44.304 89.269 44.592C88.997 44.864 88.653 45 88.237 45C87.821 45 87.477 44.864 87.205 44.592C86.933 44.304 86.797 43.952 86.797 43.536V31.296C86.797 30.16 87.197 29.2 87.997 28.416C88.797 27.632 89.997 27.24 91.597 27.24ZM91.861 32.4C92.245 32.4 92.565 32.528 92.821 32.784C93.077 33.024 93.205 33.336 93.205 33.72C93.205 34.104 93.077 34.424 92.821 34.68C92.565 34.92 92.245 35.04 91.861 35.04H85.501C85.117 35.04 84.797 34.92 84.541 34.68C84.285 34.424 84.157 34.104 84.157 33.72C84.157 33.336 84.285 33.024 84.541 32.784C84.797 32.528 85.117 32.4 85.501 32.4H91.861ZM102.085 27.24C102.437 27.24 102.781 27.288 103.117 27.384C103.453 27.48 103.733 27.64 103.957 27.864C104.181 28.072 104.293 28.352 104.293 28.704C104.293 29.104 104.173 29.424 103.933 29.664C103.709 29.888 103.445 30 103.141 30C102.997 30 102.781 29.968 102.493 29.904C102.205 29.824 101.925 29.784 101.653 29.784C101.253 29.784 100.941 29.872 100.717 30.048C100.509 30.224 100.365 30.432 100.285 30.672C100.205 30.896 100.165 31.096 100.165 31.272V43.536C100.165 43.952 100.029 44.304 99.757 44.592C99.485 44.864 99.141 45 98.725 45C98.309 45 97.965 44.864 97.693 44.592C97.421 44.304 97.285 43.952 97.285 43.536V31.296C97.285 30.16 97.685 29.2 98.485 28.416C99.285 27.632 100.485 27.24 102.085 27.24ZM102.349 32.4C102.733 32.4 103.053 32.528 103.309 32.784C103.565 33.024 103.693 33.336 103.693 33.72C103.693 34.104 103.565 34.424 103.309 34.68C103.053 34.92 102.733 35.04 102.349 35.04H95.989C95.605 35.04 95.285 34.92 95.029 34.68C94.773 34.424 94.645 34.104 94.645 33.72C94.645 33.336 94.773 33.024 95.029 32.784C95.285 32.528 95.605 32.4 95.989 32.4H102.349ZM113.198 31.92C114.478 31.92 115.422 32.232 116.03 32.856C116.638 33.464 117.038 34.256 117.23 35.232L116.822 35.016L117.014 34.632C117.206 34.264 117.502 33.872 117.902 33.456C118.302 33.024 118.782 32.664 119.342 32.376C119.918 32.072 120.558 31.92 121.262 31.92C122.414 31.92 123.286 32.168 123.878 32.664C124.486 33.16 124.902 33.824 125.126 34.656C125.35 35.472 125.462 36.384 125.462 37.392V43.536C125.462 43.952 125.326 44.304 125.054 44.592C124.782 44.864 124.438 45 124.022 45C123.606 45 123.262 44.864 122.99 44.592C122.718 44.304 122.582 43.952 122.582 43.536V37.392C122.582 36.864 122.518 36.392 122.39 35.976C122.262 35.544 122.03 35.2 121.694 34.944C121.358 34.688 120.878 34.56 120.254 34.56C119.646 34.56 119.126 34.688 118.694 34.944C118.262 35.2 117.934 35.544 117.71 35.976C117.502 36.392 117.398 36.864 117.398 37.392V43.536C117.398 43.952 117.262 44.304 116.99 44.592C116.718 44.864 116.374 45 115.958 45C115.542 45 115.198 44.864 114.926 44.592C114.654 44.304 114.518 43.952 114.518 43.536V37.392C114.518 36.864 114.454 36.392 114.326 35.976C114.198 35.544 113.966 35.2 113.63 34.944C113.294 34.688 112.814 34.56 112.19 34.56C111.582 34.56 111.062 34.688 110.63 34.944C110.198 35.2 109.87 35.544 109.646 35.976C109.438 36.392 109.334 36.864 109.334 37.392V43.536C109.334 43.952 109.198 44.304 108.926 44.592C108.654 44.864 108.31 45 107.894 45C107.478 45 107.134 44.864 106.862 44.592C106.59 44.304 106.454 43.952 106.454 43.536V33.624C106.454 33.208 106.59 32.864 106.862 32.592C107.134 32.304 107.478 32.16 107.894 32.16C108.31 32.16 108.654 32.304 108.926 32.592C109.198 32.864 109.334 33.208 109.334 33.624V34.656L108.974 34.584C109.118 34.312 109.318 34.024 109.574 33.72C109.83 33.4 110.142 33.104 110.51 32.832C110.878 32.56 111.286 32.344 111.734 32.184C112.182 32.008 112.67 31.92 113.198 31.92ZM139.571 31.92C139.987 31.92 140.331 32.056 140.603 32.328C140.875 32.6 141.011 32.952 141.011 33.384V43.536C141.011 43.952 140.875 44.304 140.603 44.592C140.331 44.864 139.987 45 139.571 45C139.155 45 138.811 44.864 138.539 44.592C138.267 44.304 138.131 43.952 138.131 43.536V42.36L138.659 42.576C138.659 42.784 138.547 43.04 138.323 43.344C138.099 43.632 137.795 43.92 137.411 44.208C137.027 44.496 136.571 44.744 136.043 44.952C135.531 45.144 134.971 45.24 134.363 45.24C133.259 45.24 132.259 44.96 131.363 44.4C130.467 43.824 129.755 43.04 129.227 42.048C128.715 41.04 128.459 39.888 128.459 38.592C128.459 37.28 128.715 36.128 129.227 35.136C129.755 34.128 130.459 33.344 131.339 32.784C132.219 32.208 133.195 31.92 134.267 31.92C134.955 31.92 135.587 32.024 136.163 32.232C136.739 32.44 137.235 32.704 137.651 33.024C138.083 33.344 138.411 33.672 138.635 34.008C138.875 34.328 138.995 34.6 138.995 34.824L138.131 35.136V33.384C138.131 32.968 138.267 32.624 138.539 32.352C138.811 32.064 139.155 31.92 139.571 31.92ZM134.723 42.6C135.427 42.6 136.043 42.424 136.571 42.072C137.099 41.72 137.507 41.24 137.795 40.632C138.099 40.024 138.251 39.344 138.251 38.592C138.251 37.824 138.099 37.136 137.795 36.528C137.507 35.92 137.099 35.44 136.571 35.088C136.043 34.736 135.427 34.56 134.723 34.56C134.035 34.56 133.427 34.736 132.899 35.088C132.371 35.44 131.955 35.92 131.651 36.528C131.363 37.136 131.219 37.824 131.219 38.592C131.219 39.344 131.363 40.024 131.651 40.632C131.955 41.24 132.371 41.72 132.899 42.072C133.427 42.424 134.035 42.6 134.723 42.6ZM144.873 32.16C145.337 32.16 145.729 32.36 146.049 32.76L154.065 42.72C154.273 42.976 154.377 43.264 154.377 43.584C154.377 43.984 154.225 44.328 153.921 44.616C153.617 44.904 153.281 45.048 152.913 45.048C152.449 45.048 152.057 44.84 151.737 44.424L143.721 34.464C143.513 34.208 143.409 33.92 143.409 33.6C143.409 33.184 143.553 32.84 143.841 32.568C144.145 32.296 144.489 32.16 144.873 32.16ZM144.897 45.024C144.577 45.024 144.257 44.904 143.937 44.664C143.633 44.408 143.481 44.104 143.481 43.752C143.481 43.432 143.601 43.128 143.841 42.84L147.513 38.352L148.953 40.752L146.049 44.424C145.745 44.824 145.361 45.024 144.897 45.024ZM152.889 32.16C153.273 32.16 153.593 32.296 153.849 32.568C154.121 32.824 154.257 33.12 154.257 33.456C154.257 33.616 154.233 33.776 154.185 33.936C154.137 34.096 154.049 34.248 153.921 34.392L150.297 38.808L148.785 36.72L151.737 32.808C152.057 32.376 152.441 32.16 152.889 32.16Z" fill="white"/>
</svg>
