<svg width="198" height="72" viewBox="0 0 198 72" fill="none" xmlns="http://www.w3.org/2000/svg">
<rect x="0.5" y="0.5" width="197" height="71" rx="9.5" stroke="#A1AEBF"/>
<path d="M46.8153 45.4629L27.3153 32.0933C25.3392 30.7385 26.0109 27.9177 28.475 27.2543L49.2 21.6634C49.6391 21.5059 50.1095 21.4548 50.5724 21.5143C51.0353 21.5738 51.4772 21.7421 51.8616 22.0054C52.2458 22.2686 52.5615 22.6192 52.7821 23.0279C53.0028 23.4367 53.1222 23.8919 53.1305 24.3557L51.9022 43.3151C51.7566 45.5655 48.7913 46.8176 46.8153 45.4629Z" fill="#A1AEBF"/>
<path d="M40.631 48.7634L29.143 26.4333C28.8803 25.9225 28.7648 25.3495 28.809 24.7775C28.8532 24.2055 29.0556 23.6568 29.3936 23.1918C29.7317 22.7269 30.1924 22.3637 30.7249 22.1425C31.2574 21.9212 31.841 21.8504 32.4114 21.9379L53.7017 25.2039C54.1918 25.2791 54.657 25.4688 55.0591 25.7576C55.461 26.0463 55.7883 26.4258 56.0141 26.8647C56.2397 27.3037 56.3574 27.7896 56.3573 28.2826C56.3572 28.7756 56.2394 29.2615 56.0136 29.7004L46.206 48.7645C45.9427 49.2739 45.5431 49.7013 45.0512 49.9996C44.5594 50.298 43.9944 50.4557 43.4182 50.4556C42.842 50.4555 42.277 50.2976 41.7853 49.9991C41.2935 49.7004 40.8942 49.2729 40.631 48.7634Z" fill="#728095"/>
<path d="M53.0781 25.1077L42.465 23.4796L29.4346 26.9962L34.6357 37.1095L46.815 45.4629C47.0837 45.6452 47.3792 45.7848 47.6911 45.8767L52.3172 36.8848L53.0781 25.1077Z" fill="white"/>
<path d="M88.9926 36.592C88.9926 37.904 88.6966 39.064 88.1046 40.072C87.5286 41.064 86.7446 41.84 85.7526 42.4C84.7766 42.96 83.6806 43.24 82.4646 43.24C81.2486 43.24 80.1446 42.96 79.1526 42.4C78.1766 41.84 77.3926 41.064 76.8006 40.072C76.2246 39.064 75.9366 37.904 75.9366 36.592C75.9366 35.28 76.2246 34.128 76.8006 33.136C77.3926 32.128 78.1766 31.344 79.1526 30.784C80.1446 30.208 81.2486 29.92 82.4646 29.92C83.6806 29.92 84.7766 30.208 85.7526 30.784C86.7446 31.344 87.5286 32.128 88.1046 33.136C88.6966 34.128 88.9926 35.28 88.9926 36.592ZM86.1126 36.592C86.1126 35.776 85.9446 35.072 85.6086 34.48C85.2886 33.872 84.8486 33.4 84.2886 33.064C83.7446 32.728 83.1366 32.56 82.4646 32.56C81.7926 32.56 81.1766 32.728 80.6166 33.064C80.0726 33.4 79.6326 33.872 79.2966 34.48C78.9766 35.072 78.8166 35.776 78.8166 36.592C78.8166 37.392 78.9766 38.096 79.2966 38.704C79.6326 39.296 80.0726 39.76 80.6166 40.096C81.1766 40.432 81.7926 40.6 82.4646 40.6C83.1366 40.6 83.7446 40.432 84.2886 40.096C84.8486 39.76 85.2886 39.296 85.6086 38.704C85.9446 38.096 86.1126 37.392 86.1126 36.592ZM98.5931 25.24C98.9451 25.24 99.2891 25.288 99.6251 25.384C99.9611 25.48 100.241 25.64 100.465 25.864C100.689 26.072 100.801 26.352 100.801 26.704C100.801 27.104 100.681 27.424 100.441 27.664C100.217 27.888 99.9531 28 99.6491 28C99.5051 28 99.2891 27.968 99.0011 27.904C98.7131 27.824 98.4331 27.784 98.1611 27.784C97.7611 27.784 97.4491 27.872 97.2251 28.048C97.0171 28.224 96.8731 28.432 96.7931 28.672C96.7131 28.896 96.6731 29.096 96.6731 29.272V41.536C96.6731 41.952 96.5371 42.304 96.2651 42.592C95.9931 42.864 95.6491 43 95.2331 43C94.8171 43 94.4731 42.864 94.2011 42.592C93.9291 42.304 93.7931 41.952 93.7931 41.536V29.296C93.7931 28.16 94.1931 27.2 94.9931 26.416C95.7931 25.632 96.9931 25.24 98.5931 25.24ZM98.8571 30.4C99.2411 30.4 99.5611 30.528 99.8171 30.784C100.073 31.024 100.201 31.336 100.201 31.72C100.201 32.104 100.073 32.424 99.8171 32.68C99.5611 32.92 99.2411 33.04 98.8571 33.04H92.4971C92.1131 33.04 91.7931 32.92 91.5371 32.68C91.2811 32.424 91.1531 32.104 91.1531 31.72C91.1531 31.336 91.2811 31.024 91.5371 30.784C91.7931 30.528 92.1131 30.4 92.4971 30.4H98.8571ZM109.081 25.24C109.433 25.24 109.777 25.288 110.113 25.384C110.449 25.48 110.729 25.64 110.953 25.864C111.177 26.072 111.289 26.352 111.289 26.704C111.289 27.104 111.169 27.424 110.929 27.664C110.705 27.888 110.441 28 110.137 28C109.993 28 109.777 27.968 109.489 27.904C109.201 27.824 108.921 27.784 108.649 27.784C108.249 27.784 107.937 27.872 107.713 28.048C107.505 28.224 107.361 28.432 107.281 28.672C107.201 28.896 107.161 29.096 107.161 29.272V41.536C107.161 41.952 107.025 42.304 106.753 42.592C106.481 42.864 106.137 43 105.721 43C105.305 43 104.961 42.864 104.689 42.592C104.417 42.304 104.281 41.952 104.281 41.536V29.296C104.281 28.16 104.681 27.2 105.481 26.416C106.281 25.632 107.481 25.24 109.081 25.24ZM109.345 30.4C109.729 30.4 110.049 30.528 110.305 30.784C110.561 31.024 110.689 31.336 110.689 31.72C110.689 32.104 110.561 32.424 110.305 32.68C110.049 32.92 109.729 33.04 109.345 33.04H102.985C102.601 33.04 102.281 32.92 102.025 32.68C101.769 32.424 101.641 32.104 101.641 31.72C101.641 31.336 101.769 31.024 102.025 30.784C102.281 30.528 102.601 30.4 102.985 30.4H109.345ZM120.194 29.92C121.474 29.92 122.418 30.232 123.026 30.856C123.634 31.464 124.034 32.256 124.226 33.232L123.818 33.016L124.01 32.632C124.202 32.264 124.498 31.872 124.898 31.456C125.298 31.024 125.778 30.664 126.338 30.376C126.914 30.072 127.554 29.92 128.258 29.92C129.41 29.92 130.282 30.168 130.874 30.664C131.482 31.16 131.898 31.824 132.122 32.656C132.346 33.472 132.458 34.384 132.458 35.392V41.536C132.458 41.952 132.322 42.304 132.05 42.592C131.778 42.864 131.434 43 131.018 43C130.602 43 130.258 42.864 129.986 42.592C129.714 42.304 129.578 41.952 129.578 41.536V35.392C129.578 34.864 129.514 34.392 129.386 33.976C129.258 33.544 129.026 33.2 128.69 32.944C128.354 32.688 127.874 32.56 127.25 32.56C126.642 32.56 126.122 32.688 125.69 32.944C125.258 33.2 124.93 33.544 124.706 33.976C124.498 34.392 124.394 34.864 124.394 35.392V41.536C124.394 41.952 124.258 42.304 123.986 42.592C123.714 42.864 123.37 43 122.954 43C122.538 43 122.194 42.864 121.922 42.592C121.65 42.304 121.514 41.952 121.514 41.536V35.392C121.514 34.864 121.45 34.392 121.322 33.976C121.194 33.544 120.962 33.2 120.626 32.944C120.29 32.688 119.81 32.56 119.186 32.56C118.578 32.56 118.058 32.688 117.626 32.944C117.194 33.2 116.866 33.544 116.642 33.976C116.434 34.392 116.33 34.864 116.33 35.392V41.536C116.33 41.952 116.194 42.304 115.922 42.592C115.65 42.864 115.306 43 114.89 43C114.474 43 114.13 42.864 113.858 42.592C113.586 42.304 113.45 41.952 113.45 41.536V31.624C113.45 31.208 113.586 30.864 113.858 30.592C114.13 30.304 114.474 30.16 114.89 30.16C115.306 30.16 115.65 30.304 115.922 30.592C116.194 30.864 116.33 31.208 116.33 31.624V32.656L115.97 32.584C116.114 32.312 116.314 32.024 116.57 31.72C116.826 31.4 117.138 31.104 117.506 30.832C117.874 30.56 118.282 30.344 118.73 30.184C119.178 30.008 119.666 29.92 120.194 29.92ZM146.567 29.92C146.983 29.92 147.327 30.056 147.599 30.328C147.871 30.6 148.007 30.952 148.007 31.384V41.536C148.007 41.952 147.871 42.304 147.599 42.592C147.327 42.864 146.983 43 146.567 43C146.151 43 145.807 42.864 145.535 42.592C145.263 42.304 145.127 41.952 145.127 41.536V40.36L145.655 40.576C145.655 40.784 145.543 41.04 145.319 41.344C145.095 41.632 144.791 41.92 144.407 42.208C144.023 42.496 143.567 42.744 143.039 42.952C142.527 43.144 141.967 43.24 141.359 43.24C140.255 43.24 139.255 42.96 138.359 42.4C137.463 41.824 136.751 41.04 136.223 40.048C135.711 39.04 135.455 37.888 135.455 36.592C135.455 35.28 135.711 34.128 136.223 33.136C136.751 32.128 137.455 31.344 138.335 30.784C139.215 30.208 140.191 29.92 141.263 29.92C141.951 29.92 142.583 30.024 143.159 30.232C143.735 30.44 144.231 30.704 144.647 31.024C145.079 31.344 145.407 31.672 145.631 32.008C145.871 32.328 145.991 32.6 145.991 32.824L145.127 33.136V31.384C145.127 30.968 145.263 30.624 145.535 30.352C145.807 30.064 146.151 29.92 146.567 29.92ZM141.719 40.6C142.423 40.6 143.039 40.424 143.567 40.072C144.095 39.72 144.503 39.24 144.791 38.632C145.095 38.024 145.247 37.344 145.247 36.592C145.247 35.824 145.095 35.136 144.791 34.528C144.503 33.92 144.095 33.44 143.567 33.088C143.039 32.736 142.423 32.56 141.719 32.56C141.031 32.56 140.423 32.736 139.895 33.088C139.367 33.44 138.951 33.92 138.647 34.528C138.359 35.136 138.215 35.824 138.215 36.592C138.215 37.344 138.359 38.024 138.647 38.632C138.951 39.24 139.367 39.72 139.895 40.072C140.423 40.424 141.031 40.6 141.719 40.6ZM151.869 30.16C152.333 30.16 152.725 30.36 153.045 30.76L161.061 40.72C161.269 40.976 161.373 41.264 161.373 41.584C161.373 41.984 161.221 42.328 160.917 42.616C160.613 42.904 160.277 43.048 159.909 43.048C159.445 43.048 159.053 42.84 158.733 42.424L150.717 32.464C150.509 32.208 150.405 31.92 150.405 31.6C150.405 31.184 150.549 30.84 150.837 30.568C151.141 30.296 151.485 30.16 151.869 30.16ZM151.893 43.024C151.573 43.024 151.253 42.904 150.933 42.664C150.629 42.408 150.477 42.104 150.477 41.752C150.477 41.432 150.597 41.128 150.837 40.84L154.509 36.352L155.949 38.752L153.045 42.424C152.741 42.824 152.357 43.024 151.893 43.024ZM159.885 30.16C160.269 30.16 160.589 30.296 160.845 30.568C161.117 30.824 161.253 31.12 161.253 31.456C161.253 31.616 161.229 31.776 161.181 31.936C161.133 32.096 161.045 32.248 160.917 32.392L157.293 36.808L155.781 34.72L158.733 30.808C159.053 30.376 159.437 30.16 159.885 30.16Z" fill="white"/>
</svg>
