<svg width="198" height="72" viewBox="0 0 198 72" fill="none" xmlns="http://www.w3.org/2000/svg">
<rect x="0.5" y="0.5" width="197" height="71" rx="9.5" stroke="#A1AEBF"/>
<path d="M68.873 28.8265H72.5242V43.4999H68.873V28.8265ZM73.9725 37.9596C73.9725 34.3306 76.2119 32.1652 79.6683 32.1652C83.1247 32.1652 85.3641 34.3306 85.3641 37.9596C85.3641 41.5886 83.1734 43.766 79.6683 43.766C76.1632 43.766 73.9725 41.6491 73.9725 37.9596ZM81.7008 37.9596C81.7008 35.9636 80.9097 34.7902 79.6683 34.7902C78.4269 34.7902 77.648 35.9999 77.648 37.9596C77.648 39.9193 78.4148 41.1048 79.6683 41.1048C80.9219 41.1048 81.7008 39.9918 81.7008 37.9717V37.9596ZM86.7394 44.2136H90.2445C90.4114 44.582 90.6934 44.8869 91.0486 45.0831C91.4039 45.2792 91.8134 45.3562 92.2161 45.3023C93.6036 45.3023 94.3338 44.5523 94.3338 43.4636V41.4314H94.2608C93.9699 42.0542 93.4978 42.5761 92.9056 42.9298C92.3134 43.2834 91.6281 43.4525 90.9382 43.4152C88.2729 43.4152 86.5082 41.3951 86.5082 37.9233C86.5082 34.4515 88.1877 32.262 90.9869 32.262C91.6984 32.2343 92.4014 32.4234 93.0017 32.8038C93.6021 33.1844 94.0712 33.7382 94.346 34.391V32.3709H97.9971V43.3789C97.9971 46.0281 95.6482 47.6733 92.1796 47.6733C88.9544 47.6733 86.9463 46.2338 86.7394 44.2257V44.2136ZM94.346 37.9475C94.346 36.1814 93.5306 35.0685 92.2405 35.0685C90.9504 35.0685 90.1593 36.1693 90.1593 37.9475C90.1593 39.7257 90.9382 40.7298 92.2405 40.7298C93.5427 40.7298 94.346 39.7499 94.346 37.9596V37.9475ZM99.3724 37.9475C99.3724 34.3185 101.612 32.1531 105.068 32.1531C108.525 32.1531 110.776 34.3185 110.776 37.9475C110.776 41.5765 108.586 43.7539 105.068 43.7539C101.551 43.7539 99.3724 41.6491 99.3724 37.9596V37.9475ZM107.101 37.9475C107.101 35.9515 106.31 34.7781 105.068 34.7781C103.827 34.7781 103.109 35.9999 103.109 37.9717C103.109 39.9435 103.876 41.1168 105.117 41.1168C106.358 41.1168 107.101 39.9918 107.101 37.9717V37.9475ZM112.164 29.7338C112.154 29.3674 112.254 29.0064 112.451 28.6966C112.648 28.3868 112.934 28.1422 113.271 27.9937C113.608 27.8452 113.982 27.7995 114.345 27.8625C114.708 27.9255 115.045 28.0942 115.311 28.3474C115.578 28.6005 115.763 28.9267 115.843 29.2845C115.923 29.6423 115.894 30.0156 115.76 30.3573C115.627 30.6987 115.394 30.9932 115.091 31.2031C114.789 31.4129 114.431 31.5289 114.062 31.5362C113.818 31.5529 113.573 31.5191 113.342 31.4371C113.111 31.3551 112.9 31.2266 112.722 31.0596C112.544 30.8927 112.402 30.6908 112.306 30.4667C112.21 30.2428 112.161 30.0015 112.164 29.758V29.7338ZM112.164 32.3951H115.815V43.4999H112.164V32.3951ZM129.069 37.9475C129.069 41.5765 127.45 43.6451 124.675 43.6451C123.963 43.6904 123.255 43.5176 122.646 43.1498C122.036 42.782 121.555 42.237 121.267 41.5886H121.194V47.0564H117.543V32.3709H121.194V34.3548H121.267C121.542 33.6956 122.014 33.1365 122.619 32.7534C123.224 32.3703 123.934 32.1818 124.651 32.2136C127.45 32.262 129.117 34.3427 129.117 37.9717L129.069 37.9475ZM125.417 37.9475C125.417 36.1814 124.602 35.0564 123.324 35.0564C122.046 35.0564 121.231 36.1935 121.219 37.9475C121.206 39.7015 122.046 40.8265 123.324 40.8265C124.602 40.8265 125.417 39.7257 125.417 37.9717V37.9475ZM135.336 32.141C138.367 32.141 140.205 33.5685 140.29 35.8548H136.967C136.967 35.0685 136.31 34.5725 135.3 34.5725C134.29 34.5725 133.839 34.9596 133.839 35.5281C133.839 36.0967 134.241 36.2781 135.056 36.4475L137.393 36.9193C139.62 37.391 140.57 38.2862 140.57 39.9677C140.57 42.266 138.464 43.7418 135.361 43.7418C132.257 43.7418 130.225 42.266 130.067 40.0039H133.584C133.693 40.8265 134.351 41.3104 135.422 41.3104C136.493 41.3104 136.979 40.9596 136.979 40.3789C136.979 39.7983 136.639 39.6773 135.762 39.4959L133.657 39.0483C131.478 38.6007 130.334 37.4515 130.334 35.758C130.359 33.5806 132.318 32.1652 135.336 32.1652V32.141ZM152.752 43.4757H149.235V41.4072H149.162C148.969 42.1016 148.543 42.7095 147.954 43.1299C147.364 43.5501 146.649 43.7576 145.925 43.7177C145.37 43.749 144.815 43.6616 144.297 43.4614C143.779 43.2612 143.311 42.953 142.923 42.5573C142.535 42.1618 142.238 41.6879 142.05 41.1681C141.862 40.6483 141.789 40.0946 141.835 39.5443V32.3709H145.487V38.7096C145.487 40.0281 146.168 40.7298 147.3 40.7298C147.565 40.7302 147.828 40.6745 148.07 40.566C148.311 40.4575 148.528 40.2987 148.703 40.1006C148.877 39.9023 149.009 39.6692 149.085 39.4169C149.162 39.1644 149.185 38.8985 149.15 38.637V32.3709H152.801L152.752 43.4757ZM154.517 32.3709H158.047V34.512H158.12C158.313 33.8267 158.731 33.2246 159.305 32.8C159.879 32.3754 160.58 32.1521 161.296 32.1652C162.025 32.1073 162.748 32.3239 163.324 32.7723C163.898 33.2206 164.283 33.8675 164.4 34.5846H164.473C164.693 33.8599 165.15 33.2289 165.772 32.7909C166.393 32.3529 167.144 32.1327 167.905 32.1652C168.401 32.1487 168.895 32.2361 169.355 32.4219C169.817 32.6076 170.232 32.8877 170.576 33.2435C170.921 33.5996 171.186 34.0235 171.355 34.4879C171.523 34.9523 171.592 35.447 171.556 35.9394V43.4999H167.905V36.9072C167.905 35.6975 167.357 35.141 166.335 35.141C166.107 35.1391 165.881 35.1858 165.673 35.278C165.464 35.3702 165.278 35.5056 165.127 35.6754C164.976 35.8451 164.863 36.0449 164.796 36.2616C164.729 36.4783 164.711 36.7067 164.74 36.9314V43.4999H161.272V36.8588C161.272 35.7459 160.724 35.141 159.726 35.141C159.496 35.1412 159.267 35.1898 159.058 35.2838C158.847 35.3779 158.659 35.5152 158.507 35.6866C158.353 35.858 158.239 36.0598 158.169 36.2786C158.101 36.4973 158.079 36.728 158.107 36.9556V43.4999H154.456L154.517 32.3709Z" fill="white"/>
<path d="M58.662 29.4921C58.0427 28.0844 57.223 26.7726 56.2279 25.5969C54.7571 23.807 52.9216 22.347 50.8421 21.3129C48.7626 20.2789 46.4864 19.6944 44.1633 19.5977C41.8402 19.501 39.5228 19.8945 37.3636 20.7521C35.2045 21.6098 33.2526 22.9122 31.6364 24.5737C30.0202 26.2351 28.7763 28.218 27.9866 30.3917C27.1969 32.5654 26.8793 34.8807 27.0547 37.1851C27.2302 39.4897 27.8946 41.7311 29.0044 43.7619C30.1142 45.7928 31.644 47.5671 33.4934 48.9679C34.68 49.8847 35.9912 50.63 37.3879 51.1816C39.3462 51.9792 41.4421 52.39 43.5584 52.3913C47.9269 52.3817 52.1133 50.6509 55.2001 47.5783C58.2868 44.5057 60.022 40.3421 60.0251 36.0001C60.0283 33.7604 59.5642 31.5444 58.662 29.4921ZM43.5462 22.9235C45.4468 22.9233 47.3243 23.3362 49.0473 24.1332C48.6272 24.3136 48.1854 24.4397 47.7329 24.5082C46.244 24.7224 44.8647 25.4095 43.8008 26.4669C42.737 27.5242 42.0457 28.8952 41.8302 30.3751C41.7356 31.2051 41.3558 31.9772 40.7549 32.5613C40.1541 33.1453 39.3689 33.5053 38.532 33.5808C37.043 33.795 35.6637 34.4821 34.5999 35.5395C33.5361 36.5969 32.8448 37.9678 32.6293 39.4477C32.5563 40.2369 32.2175 40.9785 31.6678 41.5525C30.7193 39.5606 30.2932 37.3623 30.4292 35.1627C30.5651 32.963 31.2588 30.8332 32.4455 28.9715C33.6322 27.11 35.2734 25.577 37.2165 24.5153C39.1595 23.4536 41.3412 22.8977 43.5584 22.8993L43.5462 22.9235ZM33.4812 44.4679C33.6273 44.3348 33.7733 44.2138 33.9194 44.0687C35.0021 43.0253 35.6971 41.648 35.891 40.1614C35.9696 39.3258 36.3449 38.5453 36.9498 37.9598C37.5319 37.3576 38.3153 36.9876 39.1527 36.9195C40.6416 36.7052 42.0209 36.0181 43.0847 34.9608C44.1486 33.9034 44.8398 32.5325 45.0554 31.0525C45.1081 30.1786 45.4854 29.3551 46.1142 28.7421C46.7107 28.1516 47.5015 27.795 48.3414 27.738C49.7093 27.551 50.985 26.9465 51.9926 26.0082C53.1399 26.9542 54.1118 28.0923 54.8648 29.3711C54.8186 29.4331 54.7655 29.49 54.7066 29.5404C54.1257 30.1479 53.3433 30.5261 52.5037 30.605C51.0132 30.8154 49.6319 31.5013 48.5673 32.5593C47.5029 33.6174 46.8128 34.9904 46.601 36.4719C46.5152 37.3046 46.1425 38.0823 45.5459 38.6731C44.9491 39.2641 44.1654 39.6317 43.3272 39.7138C41.8338 39.9264 40.4494 40.6121 39.3794 41.669C38.3095 42.7261 37.611 44.0978 37.3879 45.5808C37.3225 46.1719 37.1181 46.7396 36.7916 47.238C35.5429 46.5011 34.4245 45.5653 33.4812 44.4679ZM43.5462 49.1372C42.3113 49.1385 41.0822 48.9675 39.8951 48.6292C40.3012 47.8767 40.5652 47.0567 40.674 46.2098C40.7593 45.3789 41.1304 44.6026 41.7246 44.0121C42.3187 43.4215 43.0997 43.0527 43.9357 42.9679C45.4268 42.7561 46.8089 42.07 47.8752 41.0124C48.9413 39.9549 49.6344 38.5825 49.8506 37.1009C49.9359 36.27 50.307 35.4938 50.9011 34.9032C51.4953 34.3126 52.2763 33.9438 53.1123 33.859C54.2344 33.714 55.3039 33.2987 56.2279 32.6493C56.741 34.5823 56.8018 36.6063 56.4056 38.5662C56.0095 40.5261 55.1668 42.3699 53.9424 43.9559C52.7181 45.5418 51.1445 46.8281 49.3423 47.7157C47.5402 48.6034 45.5575 49.069 43.5462 49.0767V49.1372Z" fill="white"/>
</svg>
