<svg width="198" height="72" viewBox="0 0 198 72" fill="none" xmlns="http://www.w3.org/2000/svg">
<rect x="0.5" y="0.5" width="197" height="71" rx="9.5" stroke="#A1AEBF"/>
<path d="M51.4392 16.9091C49.037 16.9091 46.6582 17.3912 44.4388 18.3277C42.2194 19.2643 40.203 20.637 38.5043 22.3675C36.8056 24.0981 35.4583 26.1525 34.5389 28.4136C33.6197 30.6746 33.1465 33.0981 33.1465 35.5454C33.1465 37.9927 33.6197 40.4162 34.5389 42.6773C35.4583 44.9384 36.8056 46.9927 38.5043 48.7233C40.203 50.4539 42.8174 51.427 45.0367 52.3636C47.2561 53.3001 49.037 54.1818 51.4392 54.1818V45.7306C50.238 45.7306 48.8903 45.1047 47.7806 44.6363C46.6709 44.1681 45.821 42.9996 44.9717 42.1344C44.1224 41.2691 43.4487 40.2419 42.9891 39.1114C42.5294 37.9808 42.2928 37.2237 42.2928 36C42.2928 34.7762 42.5294 33.11 42.9891 31.9795C43.4487 30.849 44.1224 29.8217 44.9717 28.9565C45.821 28.0912 46.8293 27.4048 47.939 26.9366C49.0487 26.4682 50.238 26.2272 51.4392 26.2272V16.9091Z" fill="white"/>
<path d="M51.8963 41.4545C55.1797 41.4545 57.8414 38.809 57.8414 35.5454C57.8414 32.2819 55.1797 29.6364 51.8963 29.6364C48.6128 29.6364 45.9512 32.2819 45.9512 35.5454C45.9512 38.809 48.6128 41.4545 51.8963 41.4545Z" fill="white"/>
<path d="M33.1465 36C33.1465 38.3876 33.6315 40.752 34.5737 42.9579C35.5161 45.1638 36.8971 47.1681 38.6382 48.8565C40.3794 50.5448 42.4463 51.8841 44.7211 52.7978C46.996 53.7115 49.4342 54.1818 51.8965 54.1818C54.3587 54.1818 56.797 53.7115 59.0718 52.7978C61.3467 51.8841 63.4136 50.5448 65.1548 48.8565C66.8958 47.1681 68.2769 45.1638 69.2192 42.9579C70.1614 40.752 70.6465 38.3876 70.6465 36H61.2715C61.2715 37.1939 61.029 38.376 60.5578 39.479C60.0867 40.5819 59.3962 41.5841 58.5256 42.4283C57.6551 43.2724 56.6216 43.942 55.4842 44.3989C54.3467 44.8558 53.1277 45.0909 51.8965 45.0909C50.6653 45.0909 49.4462 44.8558 48.3088 44.3989C47.1714 43.942 46.1379 43.2724 45.2673 42.4283C44.3968 41.5841 43.7063 40.5819 43.2352 39.479C42.7639 38.376 42.5215 37.1939 42.5215 36H33.1465Z" fill="white"/>
<path d="M57.8414 36C57.8414 34.3123 57.215 32.6937 56.1002 31.5003C54.9852 30.3068 53.4731 29.6364 51.8963 29.6364C50.3196 29.6364 48.8075 30.3068 47.6925 31.5003C46.5775 32.6937 45.9512 34.3123 45.9512 36H51.8963H57.8414Z" fill="white"/>
<path d="M80.7078 28.7273H77.9639V41.4546H80.7078V28.7273Z" fill="white"/>
<path d="M81.6221 36.9091C81.6221 39.7196 83.789 41.4546 86.6526 41.4546C89.5161 41.4546 91.683 39.7196 91.683 36.9091C91.683 34.0986 89.5161 32.3636 86.6526 32.3636C83.789 32.3636 81.6221 34.0986 81.6221 36.9091ZM84.0599 36.9091C84.0599 35.2436 85.1434 34.272 86.6526 34.272C88.1617 34.272 89.2452 35.2436 89.2452 36.9091C89.2452 38.5746 88.1617 39.5462 86.6526 39.5462C85.1434 39.5462 84.0599 38.5746 84.0599 36.9091Z" fill="white"/>
<path d="M99.5713 32.6098V33.7875H99.3961C98.8704 33.0317 98.0294 32.3636 96.5225 32.3636C94.455 32.3636 92.5977 34.1216 92.5977 36.8287C92.5977 39.5359 94.455 41.2938 96.5225 41.2938C98.0294 41.2938 98.8704 40.6082 99.361 39.9227H99.5363V40.7665C99.5363 42.4541 98.555 43.2275 97.1183 43.2275C95.6815 43.2275 94.9456 42.4541 94.6476 41.452L92.6677 42.3134C93.1233 43.6318 94.455 45.0909 97.1533 45.0909C99.9217 45.0909 101.744 43.6318 101.744 40.8191V32.6098H99.5713ZM97.1884 39.3953C95.8217 39.3953 94.8054 38.4109 94.8054 36.8287C94.8054 35.2466 95.8217 34.2622 97.1884 34.2622C98.555 34.2622 99.5713 35.2466 99.5713 36.8287C99.5713 38.4109 98.555 39.3953 97.1884 39.3953Z" fill="white"/>
<path d="M103.573 36.9091C103.573 39.7196 105.74 41.4546 108.604 41.4546C111.467 41.4546 113.634 39.7196 113.634 36.9091C113.634 34.0986 111.467 32.3636 108.604 32.3636C105.74 32.3636 103.573 34.0986 103.573 36.9091ZM106.011 36.9091C106.011 35.2436 107.095 34.272 108.604 34.272C110.113 34.272 111.196 35.2436 111.196 36.9091C111.196 38.5746 110.113 39.5462 108.604 39.5462C107.095 39.5462 106.011 38.5746 106.011 36.9091Z" fill="white"/>
<path d="M115.464 29.4336C115.464 30.3915 116.065 31.0489 116.836 31.0489C117.606 31.0489 118.208 30.3915 118.208 29.4336C118.208 28.4757 117.606 27.8182 116.836 27.8182C116.065 27.8182 115.464 28.4757 115.464 29.4336ZM117.807 32.1383H115.865V41.4546H117.807V32.1383Z" fill="white"/>
<path d="M120.036 45.0909H122.244V40.3585H122.419C122.91 41.0756 123.751 41.7567 125.258 41.7567C127.325 41.7567 129.182 39.9642 129.182 37.0602C129.182 34.1562 127.325 32.3636 125.258 32.3636C123.751 32.3636 122.91 33.0448 122.384 33.8157H122.209V32.6146H120.036V45.0909ZM124.592 39.8208C123.225 39.8208 122.209 38.8169 122.209 37.0602C122.209 35.3035 123.225 34.2996 124.592 34.2996C125.959 34.2996 126.974 35.3035 126.974 37.0602C126.974 38.8169 125.959 39.8208 124.592 39.8208Z" fill="white"/>
<path d="M131.347 35.0181C131.347 36.7183 132.874 37.3429 134.811 37.6899L135.295 37.7766C136.449 37.9847 136.971 38.245 136.971 38.8002C136.971 39.3554 136.449 39.789 135.37 39.789C134.289 39.789 133.415 39.3727 133.172 38.1235L131.012 38.644C131.329 40.4483 132.948 41.4546 135.37 41.4546C137.716 41.4546 139.243 40.431 139.243 38.6267C139.243 36.8223 137.679 36.3366 135.593 35.955L135.109 35.8682C134.14 35.6947 133.619 35.4518 133.619 34.8793C133.619 34.3588 134.104 34.0292 134.997 34.0292C135.891 34.0292 136.524 34.3761 136.747 35.313L138.871 34.7058C138.424 33.3179 137.065 32.3636 134.997 32.3636C132.799 32.3636 131.347 33.3179 131.347 35.0181Z" fill="white"/>
<path d="M149.305 41.3103V32.3636H146.904V36.9813C146.904 38.6407 146.047 39.6147 144.579 39.6147C143.283 39.6147 142.56 38.9474 142.56 37.5945V32.3636H140.158V37.7028C140.158 39.9214 141.626 41.4546 143.837 41.4546C145.57 41.4546 146.371 40.7331 146.752 39.9755H146.942V41.3103H149.305Z" fill="white"/>
<path d="M151.134 32.5079V41.4546H153.542V36.1155C153.542 34.8889 154.153 34.2035 155.261 34.2035C156.217 34.2035 156.79 34.7085 156.79 35.6826V41.4546H159.198V36.1155C159.198 34.8889 159.809 34.2035 160.917 34.2035C161.873 34.2035 162.445 34.7085 162.445 35.6826V41.4546H164.853V35.5743C164.853 33.4098 163.439 32.3636 161.681 32.3636C160.134 32.3636 159.427 33.013 158.968 33.7706H158.777C158.337 32.9229 157.554 32.3636 156.178 32.3636C154.802 32.3636 154.057 32.9408 153.695 33.6263H153.503V32.5079H151.134Z" fill="white"/>
</svg>
