<svg width="38" height="72" viewBox="0 0 38 72" fill="none" xmlns="http://www.w3.org/2000/svg">
<rect x="0.5" y="0.5" width="197" height="71" rx="9.5" stroke="#A1AEBF"/>
<path d="M62.0593 46.957C65.6109 43.8624 67.7887 39.6862 67.7887 35.091C67.7887 25.5515 58.4034 17.8182 46.826 17.8182C35.2486 17.8182 25.8633 25.5515 25.8633 35.091C25.8633 44.6304 35.2486 52.3637 46.826 52.3637C50.1105 52.3637 53.2185 51.7413 55.9859 50.6318C59.2367 52.5897 63.2195 53.9971 67.6182 53.7002C65.2944 53.1239 63.2955 50.7891 62.0593 46.957Z" fill="#728095"/>
<path d="M62.1985 35.0909C62.1985 42.12 55.3159 47.8182 46.8258 47.8182C38.3357 47.8182 31.4531 42.12 31.4531 35.0909C31.4531 28.0618 38.3357 22.3636 46.8258 22.3636C55.3159 22.3636 62.1985 28.0618 62.1985 35.0909Z" fill="#F7E476"/>
<path d="M56.6092 35.0909C56.6092 39.6096 52.2293 43.2727 46.8266 43.2727C41.4238 43.2727 37.0439 39.6096 37.0439 35.0909C37.0439 30.5721 41.4238 26.9091 46.8266 26.9091C52.2293 26.9091 56.6092 30.5721 56.6092 35.0909Z" fill="#A1AEBF"/>
</svg>
