<svg width="198" height="72" viewBox="0 0 198 72" fill="none" xmlns="http://www.w3.org/2000/svg">
<rect x="0.5" y="0.5" width="197" height="71" rx="9.5" stroke="#A1AEBF"/>
<path d="M83.2828 27.5288H80.1406V41.6212H88.8392V38.8598H83.2828V27.5288Z" fill="white"/>
<path d="M89.1396 36.8412C89.1396 39.8501 91.1706 41.8497 94.2361 41.8497C97.2825 41.8497 99.3135 39.8501 99.3135 36.8412C99.3135 33.8323 97.2825 31.8136 94.2361 31.8136C91.1706 31.8136 89.1396 33.8323 89.1396 36.8412ZM92.1094 36.8221C92.1094 35.3939 92.9525 34.4417 94.2361 34.4417C95.5007 34.4417 96.3438 35.3939 96.3438 36.8221C96.3438 38.2695 95.5007 39.2217 94.2361 39.2217C92.9525 39.2217 92.1094 38.2695 92.1094 36.8221Z" fill="white"/>
<path d="M99.7874 36.6889C99.7874 39.5645 101.665 41.5069 104.328 41.5069C105.612 41.5069 106.723 41.0499 107.279 40.3072V41.6212C107.279 42.9352 106.455 43.8112 104.999 43.8112C103.696 43.8112 102.795 43.2018 102.738 42.1164H99.749C100.017 44.7254 102.048 46.4773 104.826 46.4773C108.103 46.4773 110.172 44.3635 110.172 41.0118V32.0994H107.509L107.356 33.0705C106.819 32.2898 105.689 31.7756 104.386 31.7756C101.703 31.7756 99.7874 33.7752 99.7874 36.6889ZM102.776 36.6127C102.776 35.2415 103.696 34.3274 104.865 34.3274C106.225 34.3274 107.221 35.2225 107.221 36.6127C107.221 38.0029 106.244 38.9551 104.884 38.9551C103.715 38.9551 102.776 38.0029 102.776 36.6127Z" fill="white"/>
<path d="M111.032 36.8412C111.032 39.8501 113.063 41.8497 116.129 41.8497C119.176 41.8497 121.206 39.8501 121.206 36.8412C121.206 33.8323 119.176 31.8136 116.129 31.8136C113.063 31.8136 111.032 33.8323 111.032 36.8412ZM114.002 36.8221C114.002 35.3939 114.845 34.4417 116.129 34.4417C117.393 34.4417 118.236 35.3939 118.236 36.8221C118.236 38.2695 117.393 39.2217 116.129 39.2217C114.845 39.2217 114.002 38.2695 114.002 36.8221Z" fill="white"/>
<path d="M123.75 30.6138C124.67 30.6138 125.417 29.8711 125.417 28.9379C125.417 28.0048 124.67 27.2811 123.75 27.2811C122.812 27.2811 122.064 28.0048 122.064 28.9379C122.064 29.8711 122.812 30.6138 123.75 30.6138ZM122.256 41.6211H125.226V32.0992H122.256V41.6211Z" fill="white"/>
<path d="M126.954 46.1916H129.866V40.669C130.422 41.3926 131.687 41.8877 133.008 41.8877C135.863 41.8877 137.587 39.7168 137.511 36.7078C137.434 33.6418 135.652 31.7946 132.989 31.7946C131.629 31.7946 130.345 32.3849 129.808 33.261L129.655 32.0993H126.954V46.1916ZM129.923 36.8602C129.923 35.4319 130.881 34.4798 132.261 34.4798C133.659 34.4798 134.541 35.4509 134.541 36.8602C134.541 38.2695 133.659 39.2406 132.261 39.2406C130.881 39.2406 129.923 38.2885 129.923 36.8602Z" fill="white"/>
<path d="M137.825 38.6122C137.902 40.5356 139.435 41.8687 141.849 41.8687C144.167 41.8687 145.777 40.6499 145.777 38.6884C145.777 37.2792 144.934 36.346 143.362 35.9651L141.658 35.5462C141.044 35.3938 140.661 35.2414 140.661 34.7463C140.661 34.2512 141.063 33.9274 141.658 33.9274C142.328 33.9274 142.768 34.3655 142.75 35.0129H145.413C145.336 33.0324 143.823 31.7946 141.715 31.7946C139.588 31.7946 137.998 33.0515 137.998 34.9558C137.998 36.2317 138.707 37.2792 140.603 37.7743L142.289 38.2123C142.787 38.3456 142.998 38.5741 142.998 38.8978C142.998 39.374 142.558 39.6787 141.81 39.6787C140.948 39.6787 140.488 39.2787 140.488 38.6122H137.825Z" fill="white"/>
<path d="M150.293 41.8686C151.462 41.8686 152.631 41.3354 153.225 40.5546L153.417 41.6211H156.195V32.0992H153.244V37.0506C153.244 38.4788 152.823 39.2596 151.462 39.2596C150.408 39.2596 149.718 38.7836 149.718 37.0125V32.0992H146.768V38.0789C146.768 40.3452 148.032 41.8686 150.293 41.8686Z" fill="white"/>
<path d="M160.873 41.6212V36.4223C160.873 34.8226 161.736 34.3655 162.579 34.3655C163.517 34.3655 164.131 34.9369 164.131 36.1176V41.6212H167.043V36.4223C167.043 34.8036 167.886 34.3465 168.729 34.3465C169.667 34.3465 170.3 34.9178 170.3 36.1176V41.6212H173.174V35.3939C173.174 33.2229 172.024 31.7756 169.552 31.7756C168.173 31.7756 167.043 32.4421 166.545 33.4705C165.97 32.4421 164.974 31.7756 163.383 31.7756C162.33 31.7756 161.352 32.2517 160.778 33.0134L160.663 32.0994H157.903V41.6212H160.873Z" fill="white"/>
<path d="M24 36.0001C24 28.2957 30.2837 22.05 38.0351 22.05H56.4561C64.2075 22.05 70.4912 28.2957 70.4912 36.0001V49.9501H38.0351C30.2837 49.9501 24 43.7045 24 36.0001Z" fill="white"/>
<path d="M56.4557 27.2811H38.0346C33.19 27.2811 29.2627 31.1847 29.2627 35.9999C29.2627 40.8151 33.19 44.7187 38.0346 44.7187H56.4557C61.3003 44.7187 65.2276 40.8151 65.2276 35.9999C65.2276 31.1847 61.3003 27.2811 56.4557 27.2811Z" fill="#4B5567"/>
<path d="M38.0354 40.3594C40.4577 40.3594 42.4213 38.4076 42.4213 36C42.4213 33.5924 40.4577 31.6406 38.0354 31.6406C35.6131 31.6406 33.6494 33.5924 33.6494 36C33.6494 38.4076 35.6131 40.3594 38.0354 40.3594Z" fill="white"/>
<path d="M36.2819 35.1282C36.7666 35.1282 37.1595 34.7378 37.1595 34.2563C37.1595 33.7748 36.7666 33.3844 36.2819 33.3844C35.7972 33.3844 35.4043 33.7748 35.4043 34.2563C35.4043 34.7378 35.7972 35.1282 36.2819 35.1282Z" fill="#0D0D0D"/>
<path d="M57.3342 40.3594C59.7565 40.3594 61.7202 38.4076 61.7202 36C61.7202 33.5924 59.7565 31.6406 57.3342 31.6406C54.9119 31.6406 52.9482 33.5924 52.9482 36C52.9482 38.4076 54.9119 40.3594 57.3342 40.3594Z" fill="white"/>
<path d="M55.5797 35.1282C56.0644 35.1282 56.4573 34.7378 56.4573 34.2563C56.4573 33.7748 56.0644 33.3844 55.5797 33.3844C55.0951 33.3844 54.7021 33.7748 54.7021 34.2563C54.7021 34.7378 55.0951 35.1282 55.5797 35.1282Z" fill="#0D0D0D"/>
</svg>
