<svg width="198" height="72" viewBox="0 0 198 72" fill="none" xmlns="http://www.w3.org/2000/svg">
<rect x="0.5" y="0.5" width="197" height="71" rx="9.5" stroke="#A1AEBF"/>
<path d="M51.7557 16L24 39.1397H42.7412L35.2428 55.9763L63.2437 32.9908H43.7244L51.7557 16Z" fill="#728095"/>
<path d="M51.7561 16L39.2189 34.6819H57.8474L35.2432 55.9763L63.2441 32.9908H43.7247L51.7561 16Z" fill="#4B5567"/>
<path d="M51.7557 16L24 39.1397H42.7412L35.2428 55.9763L47.1537 37.4486H29.5415L51.7557 16Z" fill="#A1AEBF"/>
<path d="M85.9945 36.592C85.9945 37.904 85.6985 39.064 85.1065 40.072C84.5305 41.064 83.7465 41.84 82.7545 42.4C81.7785 42.96 80.6825 43.24 79.4665 43.24C78.2505 43.24 77.1465 42.96 76.1545 42.4C75.1785 41.84 74.3945 41.064 73.8025 40.072C73.2265 39.064 72.9385 37.904 72.9385 36.592C72.9385 35.28 73.2265 34.128 73.8025 33.136C74.3945 32.128 75.1785 31.344 76.1545 30.784C77.1465 30.208 78.2505 29.92 79.4665 29.92C80.6825 29.92 81.7785 30.208 82.7545 30.784C83.7465 31.344 84.5305 32.128 85.1065 33.136C85.6985 34.128 85.9945 35.28 85.9945 36.592ZM83.1145 36.592C83.1145 35.776 82.9465 35.072 82.6105 34.48C82.2905 33.872 81.8505 33.4 81.2905 33.064C80.7465 32.728 80.1385 32.56 79.4665 32.56C78.7945 32.56 78.1785 32.728 77.6185 33.064C77.0745 33.4 76.6345 33.872 76.2985 34.48C75.9785 35.072 75.8185 35.776 75.8185 36.592C75.8185 37.392 75.9785 38.096 76.2985 38.704C76.6345 39.296 77.0745 39.76 77.6185 40.096C78.1785 40.432 78.7945 40.6 79.4665 40.6C80.1385 40.6 80.7465 40.432 81.2905 40.096C81.8505 39.76 82.2905 39.296 82.6105 38.704C82.9465 38.096 83.1145 37.392 83.1145 36.592ZM95.5951 25.24C95.9471 25.24 96.2911 25.288 96.6271 25.384C96.9631 25.48 97.2431 25.64 97.4671 25.864C97.6911 26.072 97.8031 26.352 97.8031 26.704C97.8031 27.104 97.6831 27.424 97.4431 27.664C97.2191 27.888 96.9551 28 96.6511 28C96.5071 28 96.2911 27.968 96.0031 27.904C95.7151 27.824 95.4351 27.784 95.1631 27.784C94.7631 27.784 94.4511 27.872 94.2271 28.048C94.0191 28.224 93.8751 28.432 93.7951 28.672C93.7151 28.896 93.6751 29.096 93.6751 29.272V41.536C93.6751 41.952 93.5391 42.304 93.2671 42.592C92.9951 42.864 92.6511 43 92.2351 43C91.8191 43 91.4751 42.864 91.2031 42.592C90.9311 42.304 90.7951 41.952 90.7951 41.536V29.296C90.7951 28.16 91.1951 27.2 91.9951 26.416C92.7951 25.632 93.9951 25.24 95.5951 25.24ZM95.8591 30.4C96.2431 30.4 96.5631 30.528 96.8191 30.784C97.0751 31.024 97.2031 31.336 97.2031 31.72C97.2031 32.104 97.0751 32.424 96.8191 32.68C96.5631 32.92 96.2431 33.04 95.8591 33.04H89.4991C89.1151 33.04 88.7951 32.92 88.5391 32.68C88.2831 32.424 88.1551 32.104 88.1551 31.72C88.1551 31.336 88.2831 31.024 88.5391 30.784C88.7951 30.528 89.1151 30.4 89.4991 30.4H95.8591ZM106.083 25.24C106.435 25.24 106.779 25.288 107.115 25.384C107.451 25.48 107.731 25.64 107.955 25.864C108.179 26.072 108.291 26.352 108.291 26.704C108.291 27.104 108.171 27.424 107.931 27.664C107.707 27.888 107.443 28 107.139 28C106.995 28 106.779 27.968 106.491 27.904C106.203 27.824 105.923 27.784 105.651 27.784C105.251 27.784 104.939 27.872 104.715 28.048C104.507 28.224 104.363 28.432 104.283 28.672C104.203 28.896 104.163 29.096 104.163 29.272V41.536C104.163 41.952 104.027 42.304 103.755 42.592C103.483 42.864 103.139 43 102.723 43C102.307 43 101.963 42.864 101.691 42.592C101.419 42.304 101.283 41.952 101.283 41.536V29.296C101.283 28.16 101.683 27.2 102.483 26.416C103.283 25.632 104.483 25.24 106.083 25.24ZM106.347 30.4C106.731 30.4 107.051 30.528 107.307 30.784C107.563 31.024 107.691 31.336 107.691 31.72C107.691 32.104 107.563 32.424 107.307 32.68C107.051 32.92 106.731 33.04 106.347 33.04H99.9871C99.6031 33.04 99.2831 32.92 99.0271 32.68C98.7711 32.424 98.6431 32.104 98.6431 31.72C98.6431 31.336 98.7711 31.024 99.0271 30.784C99.2831 30.528 99.6031 30.4 99.9871 30.4H106.347ZM117.196 29.92C118.476 29.92 119.42 30.232 120.028 30.856C120.636 31.464 121.036 32.256 121.228 33.232L120.82 33.016L121.012 32.632C121.204 32.264 121.5 31.872 121.9 31.456C122.3 31.024 122.78 30.664 123.34 30.376C123.916 30.072 124.556 29.92 125.26 29.92C126.412 29.92 127.284 30.168 127.876 30.664C128.484 31.16 128.9 31.824 129.124 32.656C129.348 33.472 129.46 34.384 129.46 35.392V41.536C129.46 41.952 129.324 42.304 129.052 42.592C128.78 42.864 128.436 43 128.02 43C127.604 43 127.26 42.864 126.988 42.592C126.716 42.304 126.58 41.952 126.58 41.536V35.392C126.58 34.864 126.516 34.392 126.388 33.976C126.26 33.544 126.028 33.2 125.692 32.944C125.356 32.688 124.876 32.56 124.252 32.56C123.644 32.56 123.124 32.688 122.692 32.944C122.26 33.2 121.932 33.544 121.708 33.976C121.5 34.392 121.396 34.864 121.396 35.392V41.536C121.396 41.952 121.26 42.304 120.988 42.592C120.716 42.864 120.372 43 119.956 43C119.54 43 119.196 42.864 118.924 42.592C118.652 42.304 118.516 41.952 118.516 41.536V35.392C118.516 34.864 118.452 34.392 118.324 33.976C118.196 33.544 117.964 33.2 117.628 32.944C117.292 32.688 116.812 32.56 116.188 32.56C115.58 32.56 115.06 32.688 114.628 32.944C114.196 33.2 113.868 33.544 113.644 33.976C113.436 34.392 113.332 34.864 113.332 35.392V41.536C113.332 41.952 113.196 42.304 112.924 42.592C112.652 42.864 112.308 43 111.892 43C111.476 43 111.132 42.864 110.86 42.592C110.588 42.304 110.452 41.952 110.452 41.536V31.624C110.452 31.208 110.588 30.864 110.86 30.592C111.132 30.304 111.476 30.16 111.892 30.16C112.308 30.16 112.652 30.304 112.924 30.592C113.196 30.864 113.332 31.208 113.332 31.624V32.656L112.972 32.584C113.116 32.312 113.316 32.024 113.572 31.72C113.828 31.4 114.14 31.104 114.508 30.832C114.876 30.56 115.284 30.344 115.732 30.184C116.18 30.008 116.668 29.92 117.196 29.92ZM143.569 29.92C143.985 29.92 144.329 30.056 144.601 30.328C144.873 30.6 145.009 30.952 145.009 31.384V41.536C145.009 41.952 144.873 42.304 144.601 42.592C144.329 42.864 143.985 43 143.569 43C143.153 43 142.809 42.864 142.537 42.592C142.265 42.304 142.129 41.952 142.129 41.536V40.36L142.657 40.576C142.657 40.784 142.545 41.04 142.321 41.344C142.097 41.632 141.793 41.92 141.409 42.208C141.025 42.496 140.569 42.744 140.041 42.952C139.529 43.144 138.969 43.24 138.361 43.24C137.257 43.24 136.257 42.96 135.361 42.4C134.465 41.824 133.753 41.04 133.225 40.048C132.713 39.04 132.457 37.888 132.457 36.592C132.457 35.28 132.713 34.128 133.225 33.136C133.753 32.128 134.457 31.344 135.337 30.784C136.217 30.208 137.193 29.92 138.265 29.92C138.953 29.92 139.585 30.024 140.161 30.232C140.737 30.44 141.233 30.704 141.649 31.024C142.081 31.344 142.409 31.672 142.633 32.008C142.873 32.328 142.993 32.6 142.993 32.824L142.129 33.136V31.384C142.129 30.968 142.265 30.624 142.537 30.352C142.809 30.064 143.153 29.92 143.569 29.92ZM138.721 40.6C139.425 40.6 140.041 40.424 140.569 40.072C141.097 39.72 141.505 39.24 141.793 38.632C142.097 38.024 142.249 37.344 142.249 36.592C142.249 35.824 142.097 35.136 141.793 34.528C141.505 33.92 141.097 33.44 140.569 33.088C140.041 32.736 139.425 32.56 138.721 32.56C138.033 32.56 137.425 32.736 136.897 33.088C136.369 33.44 135.953 33.92 135.649 34.528C135.361 35.136 135.217 35.824 135.217 36.592C135.217 37.344 135.361 38.024 135.649 38.632C135.953 39.24 136.369 39.72 136.897 40.072C137.425 40.424 138.033 40.6 138.721 40.6ZM148.871 30.16C149.335 30.16 149.727 30.36 150.047 30.76L158.063 40.72C158.271 40.976 158.375 41.264 158.375 41.584C158.375 41.984 158.223 42.328 157.919 42.616C157.615 42.904 157.279 43.048 156.911 43.048C156.447 43.048 156.055 42.84 155.735 42.424L147.719 32.464C147.511 32.208 147.407 31.92 147.407 31.6C147.407 31.184 147.551 30.84 147.839 30.568C148.143 30.296 148.487 30.16 148.871 30.16ZM148.895 43.024C148.575 43.024 148.255 42.904 147.935 42.664C147.631 42.408 147.479 42.104 147.479 41.752C147.479 41.432 147.599 41.128 147.839 40.84L151.511 36.352L152.951 38.752L150.047 42.424C149.743 42.824 149.359 43.024 148.895 43.024ZM156.887 30.16C157.271 30.16 157.591 30.296 157.847 30.568C158.119 30.824 158.255 31.12 158.255 31.456C158.255 31.616 158.231 31.776 158.183 31.936C158.135 32.096 158.047 32.248 157.919 32.392L154.295 36.808L152.783 34.72L155.735 30.808C156.055 30.376 156.439 30.16 156.887 30.16Z" fill="white"/>
</svg>
