<svg width="198" height="72" viewBox="0 0 198 72" fill="none" xmlns="http://www.w3.org/2000/svg">
<rect x="0.5" y="0.5" width="197" height="71" rx="9.5" stroke="#A1AEBF"/>
<path d="M51.8006 33.0172C54.6884 33.0172 55.3381 34.2563 55.3381 35.8018C55.3381 37.4399 54.5522 38.6136 51.8126 38.6136C49.0905 38.6136 48.3037 37.5081 48.3037 35.8018C48.3037 34.1227 49.1614 33.0172 51.8006 33.0172Z" fill="white"/>
<path d="M81.9794 33.0172C84.8671 33.0172 85.5168 34.2563 85.5168 35.8018C85.5168 37.4399 84.73 38.6136 81.9913 38.6136C79.2702 38.6136 78.4824 37.5081 78.4824 35.8018C78.4824 34.1227 79.3401 33.0172 81.9794 33.0172Z" fill="white"/>
<path fill-rule="evenodd" clip-rule="evenodd" d="M26.2334 51.9091V19.6791H172.164V51.9091H26.2334ZM95.7837 50.0909H170.324V21.4973H95.7837V50.0909ZM51.8146 41.3573C56.9413 41.3573 59.0965 39.1727 59.0965 35.7609C59.0965 32.2936 56.6689 30.2327 51.8146 30.2327C47.0348 30.2327 44.5189 32.4709 44.5189 35.7609C44.5189 39.4736 47.1582 41.3573 51.8146 41.3573ZM33.9904 30.4782V41.1936H44.3376V38.34H37.7339V30.4782H33.9904ZM70.6769 41.1936L70.5802 40.1554C69.3279 41.0383 67.8036 41.4633 66.2689 41.3573C63.9618 41.3573 62.0404 40.6745 60.9628 39.2963C60.252 38.2902 59.8931 37.0823 59.9404 35.8563C59.9 34.6561 60.2713 33.4775 60.994 32.5118C62.0845 31.1745 64.0612 30.2873 67.0042 30.2873C70.3898 30.2873 72.3793 31.3109 73.2351 33.0309C73.4188 33.436 73.5268 33.8705 73.5536 34.3136H69.972C69.8817 34.0443 69.7137 33.8071 69.4888 33.6309C68.7754 33.1636 67.9234 32.9475 67.0704 33.0173C66.5701 32.9573 66.0625 33.003 65.5814 33.1513C65.1003 33.2995 64.6564 33.547 64.2793 33.8773C63.851 34.4564 63.65 35.1693 63.7134 35.8836C63.6637 36.5652 63.8486 37.2434 64.2379 37.8082C64.6184 38.1584 65.0708 38.4237 65.5643 38.5863C66.0578 38.7487 66.5808 38.8046 67.098 38.75C68.1253 38.8325 69.1452 38.5195 69.9444 37.8763C70.116 37.6643 70.2343 37.4151 70.2894 37.1491H66.4355V34.8464H73.6474V41.1936H70.6769ZM81.9931 41.3573C87.1189 41.3573 89.275 39.1727 89.275 35.7609C89.275 32.2936 86.8437 30.2327 81.9931 30.2327C77.2134 30.2327 74.6974 32.4709 74.6974 35.7609C74.6974 39.4736 77.3367 41.3573 81.9931 41.3573Z" fill="white"/>
<path d="M102.09 41.1527V30.4373H104.759V41.1527H102.09Z" fill="white"/>
<path d="M118.462 36.6754C117.786 37.549 116.621 37.9481 114.981 37.9581C114.635 37.9581 110.047 37.9445 110.047 37.9445V41.1526H107.436V30.4372H114.982C115.586 30.374 116.198 30.4374 116.776 30.6231C117.355 30.8089 117.887 31.1129 118.339 31.5154C118.935 32.2828 119.225 33.2397 119.154 34.2044C119.215 35.0819 118.971 35.9536 118.462 36.6754ZM116.321 33.1817C116.044 32.7726 115.449 32.5454 114.441 32.5454H110.033V35.8072H114.413C115.49 35.8072 116.058 35.589 116.321 35.1654C116.476 34.8669 116.543 34.5308 116.514 34.1963C116.537 33.8474 116.471 33.4984 116.321 33.1817Z" fill="white"/>
<path d="M126.85 41.3164C121.93 41.3164 120.425 39.4982 120.425 37.6991H123.216C123.216 38.5864 124.445 39.2555 126.974 39.2555C129.488 39.2555 130.152 38.8182 130.152 38.1082C130.152 37.3164 129.655 37.071 127.319 36.8119C126.859 36.771 125.607 36.621 125.136 36.5528C121.824 36.1837 120.548 35.2146 120.548 33.481C120.548 31.6519 122.414 30.2737 126.463 30.2737C130.857 30.2737 132.543 31.98 132.543 33.7546H129.782C129.782 32.8537 128.746 32.3346 126.3 32.3346C123.785 32.3346 123.246 32.6755 123.246 33.3446C123.246 34.041 123.798 34.2591 126.467 34.5728C127.075 34.6555 128.429 34.8055 128.802 34.8455C131.621 35.1319 132.892 36.1419 132.892 37.93C132.888 40.06 130.953 41.3164 126.85 41.3164Z" fill="white"/>
<path d="M140.752 41.3027C137.146 41.3027 134.797 39.8963 134.797 36.9391V30.4373H137.435V36.9754C137.435 38.3273 138.555 39.2273 140.862 39.2273C142.948 39.2273 144.193 38.3818 144.193 36.9754V30.4373H146.804V37.1818C146.804 39.87 144.62 41.3027 140.752 41.3027Z" fill="white"/>
<path d="M161.104 41.1527V34L157.719 41.1527H155.15L151.861 34V41.1527H149.376V30.4373H152.742L156.473 38.6L160.286 30.4373H163.599V41.1527H161.104Z" fill="white"/>
</svg>
