<svg width="198" height="72" viewBox="0 0 198 72" fill="none" xmlns="http://www.w3.org/2000/svg">
<rect x="0.5" y="0.5" width="197" height="71" rx="9.5" stroke="#A1AEBF"/>
<path d="M98.6963 42.2879H93.6436V28.8618H98.6963V42.2879ZM94.1371 41.7974H98.2029V29.3523H94.1371V41.7974ZM105.727 42.2879H100.776V28.8618H111.12C112.601 28.7426 114.077 29.1561 115.278 30.0271C115.795 30.4972 116.196 31.0797 116.449 31.7292C116.702 32.3786 116.801 33.0774 116.738 33.771C116.812 34.9696 116.428 36.1518 115.663 37.0814C114.758 38.1133 113.252 38.6449 111.188 38.6636C110.668 38.6773 106.771 38.6636 105.729 38.6636L105.727 42.2879ZM101.266 41.7974H105.233V38.1682H105.481C105.531 38.1682 110.591 38.1839 111.176 38.1682C113.099 38.1516 114.482 37.6778 115.29 36.7529C115.971 35.9117 116.309 34.8472 116.237 33.7701C116.298 33.1486 116.214 32.5215 115.991 31.9376C115.769 31.3536 115.414 30.8284 114.954 30.4028C113.841 29.6084 112.479 29.2355 111.113 29.3513H101.269L101.266 41.7974ZM110.072 35.6474H105.2V31.9927H110.104C110.452 31.945 110.806 31.9853 111.134 32.11C111.462 32.2346 111.752 32.4396 111.979 32.7058C112.185 33.0461 112.282 33.4405 112.257 33.8368C112.276 34.2047 112.196 34.5709 112.026 34.898C111.792 35.1785 111.489 35.3943 111.147 35.5249C110.805 35.6554 110.434 35.6963 110.072 35.6435V35.6474ZM105.693 35.157H110.072C110.881 35.157 111.382 34.9893 111.604 34.644C111.726 34.3931 111.782 34.1151 111.765 33.8368C111.787 33.5445 111.723 33.2523 111.581 32.9952L111.576 32.9863C111.341 32.643 110.874 32.4832 110.104 32.4832H105.693V35.157ZM125.743 42.486C121.312 42.486 118.667 41.3923 117.659 39.1432C117.495 38.7088 117.383 38.2563 117.326 37.7955L117.282 37.513H122.554L122.589 37.719C122.629 37.9281 122.719 38.125 122.849 38.2938C123.057 38.5439 123.752 38.9637 126.057 38.9637C128.829 38.9637 128.828 38.4802 128.828 38.2202C128.828 37.7818 128.508 37.6317 126.248 37.3924L125.819 37.3522C124.968 37.2727 123.892 37.1717 123.401 37.1295C119.256 36.7568 117.406 35.4768 117.406 32.9805C117.406 30.3586 120.555 28.6647 125.429 28.6647C129.405 28.6647 131.967 29.7063 133.041 31.7632C133.296 32.2417 133.468 32.7598 133.548 33.2953L133.582 33.5709H128.304L128.283 33.3493C128.262 33.176 128.188 33.0135 128.07 32.8843C127.872 32.6215 127.249 32.1869 125.312 32.1869C122.935 32.1869 122.607 32.4891 122.607 32.8147C122.607 33.2492 123.358 33.4032 125.765 33.6592C126.769 33.7406 128.382 33.9054 128.935 33.9721C132.41 34.3468 133.96 35.5954 133.96 38.0221C133.961 40.0574 132.535 42.486 125.743 42.486ZM117.859 38.0035C117.908 38.3269 117.993 38.644 118.112 38.949C119.03 40.998 121.527 41.9956 125.743 41.9956C129.268 41.9956 133.471 41.309 133.471 38.0221C133.471 35.8711 132.099 34.8058 128.883 34.4596C128.33 34.3929 126.727 34.2291 125.725 34.1467C123.159 33.8701 122.116 33.723 122.116 32.8147C122.116 31.875 123.24 31.6965 125.314 31.6965C126.954 31.6965 128.012 31.9908 128.461 32.5842C128.584 32.7304 128.677 32.899 128.734 33.0805H133.011C132.925 32.7012 132.789 32.3348 132.606 31.9908C131.619 30.1085 129.208 29.1551 125.431 29.1551C120.857 29.1551 117.901 30.6568 117.901 32.9805C117.901 35.1972 119.56 36.2918 123.446 36.641C123.94 36.6832 125.014 36.7842 125.867 36.8647L126.299 36.9049C128.398 37.1246 129.324 37.2619 129.324 38.2202C129.324 39.2521 128.127 39.4541 126.059 39.4541C124.147 39.4541 122.939 39.1687 122.472 38.6067C122.328 38.4275 122.22 38.2228 122.153 38.0035H117.859ZM143.335 42.4693C138.184 42.4693 135.342 40.3987 135.342 36.6381V28.8618H140.327V36.6381C140.327 37.9279 141.489 38.6675 143.513 38.6675C145.447 38.6675 146.648 37.8956 146.648 36.6548V28.8618H151.582V37.0501C151.587 40.4939 148.578 42.4693 143.332 42.4693H143.335ZM135.835 29.3523V36.6381C135.835 41.2854 140.53 41.9789 143.335 41.9789C146.234 41.9789 151.097 41.3384 151.097 37.0501V29.3523H147.149V36.6548C147.149 38.1751 145.724 39.1579 143.521 39.1579C141.217 39.1579 139.842 38.2163 139.842 36.6381V29.3523H135.835ZM172.491 42.2879H167.786V36.2261L165.118 42.2879H161.013L158.373 36.2379V42.2879H153.651V28.8618H159.862L163.089 36.2644L166.472 28.8618H172.497L172.491 42.2879ZM168.279 41.7974H171.998V29.3523H166.785L163.073 37.4728L159.534 29.3523H154.14V41.7974H157.875V33.878L161.329 41.8004H164.783L168.274 33.8897L168.279 41.7974ZM29.9736 29.107H25.4795V42.0426H37.8979V38.5988H29.9736V29.107ZM46.969 28.8128C41.2325 28.8128 38.2157 31.5151 38.2157 35.4826C38.2157 39.9652 41.3825 42.2388 46.969 42.2388C53.119 42.2388 55.7055 39.6023 55.7055 35.4826C55.7055 31.2993 52.7874 28.8108 46.969 28.8108V28.8128ZM46.9522 32.1742C47.3427 32.1724 47.733 32.195 48.1206 32.2419L43.0966 37.2354C42.8589 36.701 42.7429 36.1208 42.7571 35.5366C42.7571 33.5072 43.7854 32.1722 46.9522 32.1722V32.1742ZM46.969 38.9304C46.5927 38.932 46.2167 38.911 45.843 38.8676L50.8759 33.8652C51.1047 34.3908 51.2143 34.9602 51.1966 35.5327C51.1966 37.5071 50.2492 38.9284 46.969 38.9284V38.9304ZM64.6098 37.1648H69.2351C69.167 37.4839 69.0251 37.7828 68.8206 38.0378C67.8617 38.8142 66.6379 39.1921 65.4052 39.0922C64.7846 39.1582 64.1572 39.0908 63.5652 38.8947C62.9732 38.6986 62.4304 38.3782 61.9739 37.9554C61.5062 37.2736 61.2841 36.4548 61.3433 35.6317C61.2676 34.7693 61.5092 33.9089 62.0232 33.21C62.6696 32.4841 63.764 32.1713 65.3726 32.1713C66.396 32.087 67.4182 32.3483 68.2739 32.9128C68.5436 33.1257 68.7452 33.412 68.8542 33.7367H73.144C73.1128 33.2016 72.9833 32.6767 72.7621 32.1879C71.7348 30.1114 69.3466 28.8756 65.2857 28.8756C61.7538 28.8756 59.3834 29.9467 58.0739 31.5621C57.209 32.7287 56.7651 34.1511 56.8137 35.5994C56.7577 37.0805 57.1903 38.5391 58.0453 39.7533C59.339 41.4208 61.6433 42.2408 64.4124 42.2408C66.2533 42.3684 68.0818 41.8559 69.5844 40.7911L69.7009 42.0426H73.2644V34.3802H64.6098V37.1648ZM83.3785 28.8098C77.643 28.8098 74.6252 31.5121 74.6252 35.4797C74.6252 39.9622 77.791 42.2359 83.3785 42.2359C89.5295 42.2359 92.116 39.5993 92.116 35.4797C92.116 31.2993 89.1979 28.8108 83.3785 28.8108V28.8098ZM83.3627 32.1713C83.7429 32.1701 84.1229 32.1918 84.5005 32.236L79.4963 37.2129C79.2659 36.6843 79.1538 36.1125 79.1676 35.5366C79.1637 33.5072 80.1959 32.1722 83.3627 32.1722V32.1713ZM83.3785 38.9274C82.9923 38.9291 82.6063 38.9067 82.2229 38.8607L87.2726 33.8407C87.5101 34.3733 87.6238 34.9523 87.6052 35.5346C87.6071 37.5071 86.6637 38.9284 83.3785 38.9284V38.9274Z" fill="white"/>
</svg>
