<svg width="198" height="72" viewBox="0 0 198 72" fill="none" xmlns="http://www.w3.org/2000/svg">
<rect x="0.5" y="0.5" width="197" height="71" rx="9.5" stroke="#A1AEBF"/>
<path d="M34.1099 44.5089C31.2201 47.3812 26.3258 47.3698 24.9589 43.5416C24.6913 42.7921 24.4773 42.0214 24.32 41.2351C23.6774 38.0244 24.0072 34.6965 25.2676 31.672C26.528 28.6477 28.6623 26.0627 31.4008 24.244C34.1393 22.4253 37.3589 21.4546 40.6524 21.4546C43.9459 21.4546 47.1655 22.4253 49.9039 24.244C52.6425 26.0627 54.7768 28.6477 56.0372 31.6721C57.2976 34.6965 57.6273 38.0244 56.9848 41.2351C56.8275 42.0214 56.6135 42.7921 56.3458 43.5416C54.979 47.3698 50.0847 47.3812 47.1948 44.5089L42.7339 40.075C42.3077 39.6514 42.3518 38.9528 42.4694 38.3652C42.5408 38.0081 42.5041 37.6379 42.3639 37.3014C42.2236 36.9649 41.9863 36.6773 41.6816 36.4751C41.377 36.2728 41.0188 36.1648 40.6524 36.1648C40.286 36.1648 39.9279 36.2728 39.6232 36.4751C39.3185 36.6773 39.0811 36.9649 38.9409 37.3014C38.8006 37.6379 38.764 38.0081 38.8355 38.3652C38.9531 38.9528 38.997 39.6514 38.5708 40.075L34.1099 44.5089Z" fill="#728095"/>
<path d="M70.8526 40.5349H75.3287V43.1567H67.4355V29.2137H70.8526V40.5349Z" fill="white"/>
<path d="M81.4348 43.3157C80.3424 43.3157 79.3565 43.084 78.4772 42.6205C77.6114 42.1571 76.9253 41.495 76.419 40.6344C75.9262 39.7737 75.6797 38.7674 75.6797 37.6153C75.6797 36.4766 75.9328 35.4769 76.439 34.6162C76.9453 33.7423 77.638 33.0736 78.5172 32.6102C79.3965 32.1468 80.3823 31.915 81.4747 31.915C82.5671 31.915 83.5529 32.1468 84.4321 32.6102C85.3114 33.0736 86.0041 33.7423 86.5104 34.6162C87.0166 35.4769 87.2697 36.4766 87.2697 37.6153C87.2697 38.7541 87.0099 39.7604 86.4904 40.6344C85.9842 41.495 85.2848 42.1571 84.3922 42.6205C83.513 43.084 82.5271 43.3157 81.4348 43.3157ZM81.4348 40.3761C82.0875 40.3761 82.6404 40.1378 83.0934 39.6611C83.5596 39.1844 83.7928 38.5025 83.7928 37.6153C83.7928 36.7282 83.5662 36.0463 83.1133 35.5696C82.6737 35.0929 82.1275 34.8545 81.4747 34.8545C80.8086 34.8545 80.2558 35.0929 79.8161 35.5696C79.3765 36.033 79.1567 36.7149 79.1567 37.6153C79.1567 38.5025 79.3699 39.1844 79.7962 39.6611C80.2358 40.1378 80.782 40.3761 81.4348 40.3761Z" fill="white"/>
<path d="M92.7195 31.915C93.5055 31.915 94.1916 32.0739 94.7777 32.3917C95.3772 32.7095 95.8368 33.1266 96.1566 33.643V32.0739H99.5736V43.1369C99.5736 44.1565 99.3672 45.0768 98.9541 45.8976C98.5545 46.7319 97.935 47.3939 97.0958 47.8838C96.2698 48.3738 95.2373 48.6188 93.9984 48.6188C92.3465 48.6188 91.0076 48.2282 89.9818 47.4469C88.9561 46.6789 88.3698 45.6328 88.2233 44.3087H91.6004C91.707 44.7324 91.9602 45.0635 92.3598 45.3019C92.7594 45.5534 93.2524 45.6792 93.8386 45.6792C94.5446 45.6792 95.1041 45.4739 95.5171 45.0635C95.9434 44.6663 96.1566 44.0241 96.1566 43.1369V41.5679C95.8235 42.0842 95.3639 42.508 94.7777 42.839C94.1916 43.1568 93.5055 43.3157 92.7195 43.3157C91.8003 43.3157 90.9676 43.084 90.2216 42.6205C89.4756 42.1438 88.8827 41.4751 88.4432 40.6144C88.0169 39.7406 87.8037 38.7343 87.8037 37.5955C87.8037 36.4567 88.0169 35.4571 88.4432 34.5964C88.8827 33.7357 89.4756 33.0736 90.2216 32.6102C90.9676 32.1468 91.8003 31.915 92.7195 31.915ZM96.1566 37.6153C96.1566 36.7679 95.9168 36.0992 95.4372 35.6093C94.9709 35.1194 94.398 34.8744 93.7186 34.8744C93.0392 34.8744 92.4597 35.1194 91.9801 35.6093C91.5138 36.086 91.2807 36.7481 91.2807 37.5955C91.2807 38.4429 91.5138 39.1182 91.9801 39.6214C92.4597 40.1113 93.0392 40.3563 93.7186 40.3563C94.398 40.3563 94.9709 40.1113 95.4372 39.6214C95.9168 39.1314 96.1566 38.4628 96.1566 37.6153Z" fill="white"/>
<path d="M106.522 43.3157C105.429 43.3157 104.443 43.084 103.564 42.6205C102.698 42.1571 102.012 41.495 101.506 40.6344C101.013 39.7737 100.767 38.7674 100.767 37.6153C100.767 36.4766 101.02 35.4769 101.526 34.6162C102.032 33.7423 102.725 33.0736 103.604 32.6102C104.483 32.1468 105.469 31.915 106.562 31.915C107.654 31.915 108.64 32.1468 109.519 32.6102C110.398 33.0736 111.091 33.7423 111.597 34.6162C112.104 35.4769 112.357 36.4766 112.357 37.6153C112.357 38.7541 112.097 39.7604 111.577 40.6344C111.071 41.495 110.372 42.1571 109.479 42.6205C108.6 43.084 107.614 43.3157 106.522 43.3157ZM106.522 40.3761C107.174 40.3761 107.727 40.1378 108.18 39.6611C108.647 39.1844 108.88 38.5025 108.88 37.6153C108.88 36.7282 108.653 36.0463 108.2 35.5696C107.761 35.0929 107.214 34.8545 106.562 34.8545C105.896 34.8545 105.343 35.0929 104.903 35.5696C104.463 36.033 104.244 36.7149 104.244 37.6153C104.244 38.5025 104.457 39.1844 104.883 39.6611C105.323 40.1378 105.869 40.3761 106.522 40.3761Z" fill="white"/>
<path d="M115.289 30.922C114.69 30.922 114.197 30.7498 113.811 30.4056C113.437 30.0481 113.251 29.6111 113.251 29.0947C113.251 28.5651 113.437 28.1281 113.811 27.7838C114.197 27.4263 114.69 27.2476 115.289 27.2476C115.875 27.2476 116.355 27.4263 116.728 27.7838C117.114 28.1281 117.307 28.5651 117.307 29.0947C117.307 29.6111 117.114 30.0481 116.728 30.4056C116.355 30.7498 115.875 30.922 115.289 30.922ZM116.988 32.074V43.1568H113.571V32.074H116.988Z" fill="white"/>
<path d="M122.281 33.643C122.614 33.1266 123.074 32.7095 123.66 32.3917C124.247 32.0739 124.933 31.915 125.718 31.915C126.638 31.915 127.47 32.1468 128.216 32.6102C128.962 33.0736 129.549 33.7357 129.975 34.5964C130.414 35.4571 130.635 36.4567 130.635 37.5955C130.635 38.7343 130.414 39.7406 129.975 40.6144C129.549 41.4751 128.962 42.1438 128.216 42.6205C127.47 43.084 126.638 43.3157 125.718 43.3157C124.945 43.3157 124.26 43.1568 123.66 42.839C123.074 42.5212 122.614 42.1107 122.281 41.6076V48.44H118.864V32.0739H122.281V33.643ZM127.158 37.5955C127.158 36.7481 126.918 36.086 126.438 35.6093C125.971 35.1194 125.392 34.8744 124.699 34.8744C124.02 34.8744 123.44 35.1194 122.96 35.6093C122.495 36.0992 122.262 36.7679 122.262 37.6153C122.262 38.4628 122.495 39.1314 122.96 39.6214C123.44 40.1113 124.02 40.3563 124.699 40.3563C125.379 40.3563 125.958 40.1113 126.438 39.6214C126.918 39.1182 127.158 38.4429 127.158 37.5955Z" fill="white"/>
<path d="M136.363 43.3157C135.391 43.3157 134.525 43.1501 133.765 42.8192C133.006 42.4881 132.406 42.0379 131.967 41.4685C131.528 40.8859 131.281 40.2371 131.228 39.522H134.605C134.645 39.906 134.825 40.2172 135.144 40.4555C135.464 40.6939 135.857 40.8131 136.324 40.8131C136.749 40.8131 137.076 40.7336 137.302 40.5747C137.542 40.4026 137.662 40.1841 137.662 39.9193C137.662 39.6015 137.496 39.3698 137.163 39.2241C136.83 39.0652 136.29 38.8932 135.544 38.7077C134.744 38.5224 134.079 38.3304 133.545 38.1317C133.013 37.9199 132.553 37.5955 132.167 37.1585C131.78 36.7084 131.588 36.1058 131.588 35.3512C131.588 34.7155 131.761 34.1396 132.107 33.6231C132.466 33.0935 132.986 32.6764 133.665 32.3718C134.358 32.0673 135.178 31.915 136.123 31.915C137.522 31.915 138.621 32.2593 139.42 32.9478C140.233 33.6364 140.7 34.55 140.82 35.6888H137.662C137.609 35.3048 137.436 35.0003 137.142 34.7751C136.863 34.55 136.49 34.4375 136.024 34.4375C135.624 34.4375 135.317 34.5169 135.104 34.6758C134.891 34.8214 134.785 35.0267 134.785 35.2915C134.785 35.6093 134.951 35.8477 135.284 36.0066C135.631 36.1655 136.163 36.3244 136.883 36.4832C137.709 36.6951 138.381 36.907 138.901 37.1188C139.42 37.3174 139.873 37.6484 140.259 38.1119C140.659 38.5621 140.866 39.1711 140.88 39.9392C140.88 40.588 140.693 41.1706 140.319 41.687C139.96 42.1902 139.434 42.5874 138.741 42.8787C138.062 43.1701 137.269 43.3157 136.363 43.3157Z" fill="white"/>
<path d="M153.381 32.0739V43.1567H149.964V41.6472C149.618 42.1371 149.144 42.5344 148.545 42.8389C147.959 43.1302 147.307 43.2759 146.587 43.2759C145.734 43.2759 144.981 43.0905 144.329 42.7197C143.676 42.3357 143.17 41.7862 142.811 41.0712C142.451 40.3562 142.271 39.5154 142.271 38.5487V32.0739H145.667V38.0919C145.667 38.8334 145.861 39.4094 146.247 39.8199C146.633 40.2304 147.153 40.4356 147.806 40.4356C148.472 40.4356 148.998 40.2304 149.384 39.8199C149.77 39.4094 149.964 38.8334 149.964 38.0919V32.0739H153.381Z" fill="white"/>
<path d="M169.464 31.9547C170.849 31.9547 171.948 32.3718 172.761 33.206C173.587 34.0402 174 35.1987 174 36.6818V43.1567H170.603V37.1387C170.603 36.4236 170.41 35.8741 170.023 35.4901C169.65 35.0928 169.131 34.8942 168.464 34.8942C167.799 34.8942 167.272 35.0928 166.886 35.4901C166.513 35.8741 166.327 36.4236 166.327 37.1387V43.1567H162.929V37.1387C162.929 36.4236 162.736 35.8741 162.35 35.4901C161.977 35.0928 161.457 34.8942 160.791 34.8942C160.125 34.8942 159.599 35.0928 159.213 35.4901C158.839 35.8741 158.653 36.4236 158.653 37.1387V43.1567H155.236V32.0739H158.653V33.4642C159 33.0008 159.453 32.6366 160.012 32.3718C160.572 32.0937 161.204 31.9547 161.91 31.9547C162.75 31.9547 163.496 32.1334 164.148 32.491C164.814 32.8485 165.334 33.3583 165.707 34.0203C166.093 33.4112 166.62 32.9147 167.286 32.5307C167.951 32.1467 168.678 31.9547 169.464 31.9547Z" fill="white"/>
</svg>
